<?xml version="1.0" standalone="no"?>
<!DOCTYPE svg PUBLIC "-//W3C//DTD SVG 20010904//EN"
 "http://www.w3.org/TR/2001/REC-SVG-20010904/DTD/svg10.dtd">
<svg version="1.0" xmlns="http://www.w3.org/2000/svg"
 width="512.000000pt" height="512.000000pt" viewBox="0 0 512.000000 512.000000"
 preserveAspectRatio="xMidYMid meet">

<g transform="translate(0.000000,512.000000) scale(0.100000,-0.100000)"
fill="#000000" stroke="none">
<path d="M800 5113 c-48 -19 -279 -159 -302 -184 -22 -23 -28 -39 -28 -76 0
-43 27 -94 366 -681 201 -349 364 -635 362 -636 -2 -2 -32 -22 -68 -46 -36
-24 -95 -74 -132 -110 -77 -74 -85 -104 -43 -145 39 -40 66 -32 142 36 215
195 463 281 741 257 119 -10 199 -32 317 -88 106 -50 192 -110 265 -184 l44
-46 -23 -37 c-98 -163 -151 -336 -158 -523 -5 -112 -3 -127 13 -148 25 -31 78
-33 107 -4 18 18 22 38 28 139 10 165 32 251 102 389 39 77 129 195 198 260
290 270 745 324 1092 131 140 -79 272 -206 355 -342 46 -75 92 -199 114 -305
22 -104 21 -262 -3 -373 l-12 -57 -208 0 -209 0 0 86 c0 113 -16 144 -75 144
-77 0 -75 17 -75 -657 0 -589 0 -600 -20 -621 -13 -14 -33 -22 -54 -22 -62 0
-64 8 -68 280 -4 274 -8 290 -74 354 -92 89 -240 80 -322 -19 -38 -47 -52 -96
-52 -187 0 -88 -19 -118 -74 -118 -66 0 -65 -1 -68 373 -3 335 -3 337 -26 359
l-23 23 -1043 3 -1043 2 -12 58 c-37 174 -21 362 46 542 39 105 38 133 -9 159
-43 25 -78 6 -110 -59 -85 -170 -119 -425 -83 -625 8 -43 13 -80 12 -80 -1 -1
-20 -7 -43 -13 -47 -14 -127 -80 -150 -123 -37 -72 -35 -186 4 -249 51 -82
116 -121 215 -128 37 -3 67 -6 67 -8 0 -31 337 -1621 350 -1651 25 -58 92
-118 156 -143 54 -20 71 -20 1274 -20 1203 0 1220 0 1274 20 64 25 131 85 156
143 13 30 350 1620 350 1651 0 2 30 5 68 8 98 7 163 46 214 128 39 63 41 177
4 249 -24 45 -105 111 -154 124 -36 10 -42 15 -38 32 35 141 32 354 -8 510
-92 356 -371 653 -718 765 l-63 20 3 118 c9 308 -101 584 -319 802 -141 141
-303 233 -508 288 -85 22 -116 26 -261 26 -181 0 -247 -12 -406 -73 -281 -108
-518 -355 -624 -650 -19 -50 -26 -60 -34 -49 -6 9 -135 230 -286 493 -248 429
-279 479 -312 496 -37 19 -69 23 -98 12z m79 -236 l35 -64 -68 -117 c-37 -64
-69 -116 -71 -116 -4 0 -145 249 -145 258 0 14 195 120 205 112 6 -5 25 -38
44 -73z m1914 -166 c323 -85 576 -333 673 -658 21 -70 27 -117 31 -230 l6
-143 -119 1 c-144 0 -240 -14 -356 -52 -157 -51 -279 -123 -399 -236 l-69 -65
-69 65 c-120 113 -242 185 -399 236 -116 38 -213 52 -356 52 l-119 0 6 142 c4
113 10 160 31 230 103 348 384 606 734 672 105 20 302 13 405 -14z m-1657
-286 c3 -13 -15 -56 -55 -124 -33 -57 -64 -108 -68 -112 -8 -8 -150 226 -146
240 3 11 114 204 126 219 8 10 26 -14 74 -95 35 -59 66 -117 69 -128z m169
-285 c36 -63 67 -118 68 -122 2 -9 -126 -237 -133 -238 -3 0 -36 55 -75 121
l-69 122 28 51 c59 105 108 187 111 184 2 -2 33 -55 70 -118z m167 -397 l4
-91 -63 -21 c-72 -24 -83 -25 -83 -11 0 19 135 245 137 230 1 -8 4 -56 5 -107z
m1348 -1663 l0 -110 -1060 0 c-779 0 -1066 3 -1084 12 -84 38 -74 164 15 195
25 9 297 12 1082 12 l1047 1 0 -110z m1609 97 c89 -31 99 -157 15 -195 -17 -8
-115 -12 -304 -12 l-280 0 0 110 0 110 268 -1 c180 0 278 -4 301 -12z m-1606
-471 c6 -128 22 -172 81 -223 72 -64 191 -71 269 -17 65 45 97 117 97 220 0
63 4 86 18 102 26 32 63 37 94 13 l26 -21 4 -247 c3 -230 5 -251 25 -288 44
-82 114 -125 205 -125 66 0 146 43 178 95 l22 35 114 0 c63 0 114 -3 114 -7
-1 -5 -22 -111 -49 -238 l-48 -230 -1301 -5 -1301 -5 -22 -22 c-29 -29 -28
-81 2 -105 20 -17 95 -18 1305 -18 706 0 1284 -2 1284 -5 0 -2 -18 -89 -40
-192 -42 -199 -54 -227 -111 -255 -32 -17 -111 -18 -1229 -18 -1118 0 -1197 1
-1229 18 -19 9 -43 29 -54 43 -13 18 -49 170 -118 505 -54 263 -101 491 -105
506 l-6 28 1081 2 1080 3 22 22 c29 29 29 77 0 106 l-22 22 -1097 3 -1097 2
-39 193 c-21 105 -41 198 -44 205 -3 9 189 12 940 12 l945 0 6 -114z m1365
102 c-3 -7 -23 -100 -44 -205 l-39 -193 -122 0 -123 0 0 205 0 205 166 0 c129
0 165 -3 162 -12z"/>
<path d="M2089 4371 c-21 -17 -24 -28 -24 -85 0 -77 22 -109 76 -109 49 0 69
31 69 107 0 52 -4 66 -23 84 -29 27 -67 28 -98 3z"/>
<path d="M2518 4379 c-23 -13 -41 -82 -33 -129 8 -47 35 -73 75 -73 61 0 93
69 70 152 -15 56 -65 78 -112 50z"/>
<path d="M2932 4367 c-29 -31 -31 -133 -4 -168 25 -30 75 -30 105 0 18 18 22
33 22 87 0 57 -3 68 -24 85 -32 26 -73 24 -99 -4z"/>
<path d="M2301 4001 c-39 -39 -39 -141 -1 -176 27 -25 80 -22 102 6 27 32 25
142 -2 169 -25 25 -74 26 -99 1z"/>
<path d="M2720 4000 c-27 -27 -29 -137 -2 -169 22 -28 75 -31 102 -6 38 35 38
137 -1 176 -25 25 -74 24 -99 -1z"/>
</g>
</svg>
