<?xml version="1.0" standalone="no"?>
<!DOCTYPE svg PUBLIC "-//W3C//DTD SVG 20010904//EN"
 "http://www.w3.org/TR/2001/REC-SVG-20010904/DTD/svg10.dtd">
<svg version="1.0" xmlns="http://www.w3.org/2000/svg"
 width="512.000000pt" height="512.000000pt" viewBox="0 0 512.000000 512.000000"
 preserveAspectRatio="xMidYMid meet">

<g transform="translate(0.000000,512.000000) scale(0.100000,-0.100000)"
fill="#000000" stroke="none">
<path d="M2644 4533 c-82 -88 -158 -213 -178 -295 -6 -25 -8 -26 -39 -17 -59
18 -197 13 -266 -11 l-64 -21 -96 94 c-103 101 -133 121 -197 131 -120 20
-253 -87 -254 -204 l0 -35 -77 -13 c-139 -22 -254 -95 -329 -209 -21 -32 -48
-71 -61 -86 -44 -54 -19 -127 45 -129 41 -1 68 24 134 120 55 82 110 123 197
149 52 15 70 15 206 -3 41 -5 53 -3 67 12 32 36 32 67 -2 109 -39 49 -39 98 2
128 44 33 72 17 200 -112 128 -128 143 -156 111 -199 -26 -36 -68 -40 -119
-11 -53 28 -89 21 -110 -24 -21 -44 -7 -78 47 -114 38 -25 52 -28 123 -28 73
0 85 3 124 29 24 16 55 50 70 75 23 40 27 56 26 123 l-1 77 31 7 c44 10 137 7
167 -5 25 -9 26 -14 32 -108 8 -112 26 -190 68 -281 59 -131 174 -261 299
-338 33 -20 60 -40 60 -44 0 -20 -56 -53 -124 -74 -70 -22 -78 -23 -83 -8 -19
57 -80 167 -124 226 -100 131 -258 235 -424 276 -111 28 -272 28 -380 0 -223
-59 -432 -237 -516 -439 l-21 -51 -20 26 c-53 67 -182 90 -263 47 -22 -12
-101 -84 -176 -160 -151 -153 -164 -176 -157 -274 8 -105 84 -183 146 -148 42
23 51 63 24 109 -40 70 -35 80 99 216 67 67 132 125 145 128 15 4 41 -3 72
-19 40 -21 54 -24 76 -15 l27 10 -8 -53 c-18 -116 -3 -288 33 -382 5 -13 -32
-15 -329 -15 l-335 0 -43 33 c-63 47 -89 104 -89 191 0 127 -33 189 -137 262
-94 66 -121 121 -89 183 30 57 57 66 206 66 150 0 170 6 244 72 99 89 208 84
301 -14 53 -57 82 -66 122 -38 70 49 0 171 -134 232 -132 61 -279 34 -391 -71
l-33 -31 -137 0 c-122 0 -141 -2 -178 -22 -61 -33 -101 -70 -132 -122 -36 -62
-38 -173 -4 -238 26 -49 75 -100 135 -137 61 -39 71 -59 77 -161 5 -82 24
-142 67 -215 2 -3 -22 -18 -52 -34 -73 -38 -148 -121 -176 -194 -48 -125 -24
-258 86 -490 120 -251 299 -470 540 -661 84 -67 242 -173 323 -216 45 -25 52
-32 52 -59 0 -17 11 -61 23 -97 64 -189 217 -329 408 -374 96 -22 1942 -22
2038 0 206 49 385 236 423 442 l11 62 101 59 c451 266 767 644 896 1070 68
225 -51 441 -272 492 -26 6 -336 10 -797 10 l-753 0 7 28 c11 47 68 132 120
180 183 166 459 157 636 -22 51 -51 65 -60 96 -60 40 0 73 31 73 69 0 52 -109
159 -220 215 -96 48 -165 64 -280 64 -88 0 -118 -5 -185 -28 -188 -65 -348
-229 -394 -403 l-12 -43 -229 0 -230 0 0 65 c0 137 83 260 205 304 33 12 80
29 104 38 54 19 126 83 151 134 11 20 24 67 30 105 21 127 37 170 90 227 33
37 69 63 111 82 58 26 68 27 148 21 47 -4 105 -9 128 -12 98 -14 223 53 286
153 65 103 179 161 297 150 77 -7 136 -35 205 -97 32 -29 77 -61 101 -72 61
-26 160 -33 258 -18 66 10 93 10 134 0 90 -21 163 -90 178 -167 16 -87 -29
-162 -143 -239 -150 -101 -193 -173 -193 -324 0 -52 -7 -120 -15 -150 -11 -42
-12 -61 -4 -82 14 -34 56 -52 92 -39 48 19 66 74 76 236 8 147 15 158 136 240
143 96 200 191 199 330 0 67 -5 89 -29 138 -75 151 -248 235 -430 209 -155
-23 -193 -14 -281 67 -64 59 -135 94 -222 111 -165 33 -358 -37 -449 -161 -66
-90 -108 -126 -154 -134 l-41 -7 -382 381 c-346 346 -385 381 -414 381 -25 0
-41 -9 -68 -37z m301 -443 c-32 -95 -10 -196 58 -267 38 -41 78 -43 112 -8 32
31 31 53 -1 100 -14 21 -28 55 -31 74 -5 36 -5 35 91 -59 53 -52 96 -98 96
-102 0 -5 -7 -8 -15 -8 -31 0 -128 -43 -171 -76 l-45 -35 -53 55 c-57 61 -90
78 -123 65 -32 -12 -56 -54 -49 -84 7 -26 74 -100 115 -126 24 -15 24 -15 6
-49 -10 -19 -23 -52 -30 -73 l-11 -38 -60 44 c-200 147 -296 411 -235 649 20
76 56 158 94 212 l20 28 125 -125 124 -125 -17 -52z m-848 -520 c21 -7 73 -30
115 -52 133 -69 240 -193 294 -344 l24 -66 -31 -36 c-18 -20 -48 -69 -67 -110
-30 -63 -36 -86 -40 -168 l-5 -94 -38 0 c-37 0 -39 2 -39 30 0 40 -31 70 -73
70 -26 0 -43 -10 -82 -50 -48 -48 -51 -50 -105 -50 l-55 1 40 21 c86 44 143
123 152 212 8 75 -12 106 -67 106 -30 0 -43 -6 -59 -26 -12 -15 -21 -38 -21
-51 0 -34 -24 -77 -54 -97 -39 -25 -109 -21 -145 9 -85 73 -46 200 68 219 74
11 81 27 81 174 0 151 -8 172 -70 172 -60 0 -80 -32 -80 -129 l-1 -76 -40 -19
c-167 -77 -207 -310 -75 -438 21 -20 56 -46 79 -57 l42 -20 -57 -1 c-55 0 -58
1 -106 51 -39 39 -57 50 -82 51 -42 1 -84 -42 -77 -79 4 -23 3 -23 -83 -23
l-87 0 -16 43 c-65 175 -57 343 24 506 71 145 213 266 367 316 101 33 275 35
369 5z m2592 -1030 c60 -17 109 -59 137 -117 37 -74 31 -143 -25 -283 -83
-212 -208 -396 -392 -575 -130 -127 -240 -211 -401 -307 l-112 -68 -1237 0
c-1194 0 -1238 -1 -1260 -19 -32 -26 -32 -86 0 -112 22 -18 66 -19 1227 -19
l1203 0 -19 -56 c-11 -31 -29 -71 -40 -89 -34 -54 -117 -125 -188 -158 l-67
-32 -965 -3 c-942 -2 -967 -2 -1031 18 -163 49 -274 188 -295 368 -8 71 -17
81 -118 136 -220 119 -453 309 -600 490 -175 215 -321 528 -300 644 17 92 73
155 164 183 38 11 4278 11 4319 -1z"/>
<path d="M2760 4102 c-28 -28 -30 -36 -30 -101 0 -86 25 -124 80 -124 53 0 70
30 70 123 0 86 -14 114 -62 126 -22 5 -33 0 -58 -24z"/>
<path d="M1620 3338 c-82 -56 -115 -134 -75 -178 33 -36 79 -27 135 28 56 55
71 86 58 121 -19 53 -65 64 -118 29z"/>
<path d="M2115 3335 c-40 -39 -33 -69 32 -136 47 -49 62 -59 90 -59 42 0 73
30 73 72 0 25 -12 43 -58 90 -67 66 -97 74 -137 33z"/>
<path d="M1495 3090 c-40 -16 -50 -39 -50 -121 0 -68 3 -82 22 -101 28 -28 77
-28 105 0 19 18 22 33 22 103 0 77 -2 83 -28 105 -29 26 -39 28 -71 14z"/>
<path d="M2285 3088 c-37 -20 -45 -40 -45 -114 0 -88 4 -101 42 -120 25 -13
35 -13 59 -3 41 16 49 36 49 118 0 85 -5 98 -41 116 -33 18 -38 18 -64 3z"/>
<path d="M3845 3596 c-126 -55 -178 -206 -111 -320 52 -88 177 -141 234 -99
37 27 41 77 11 109 -12 13 -30 24 -40 24 -79 0 -116 104 -50 139 12 7 90 11
194 11 168 0 174 -1 195 -23 31 -33 29 -80 -4 -106 -15 -12 -35 -21 -46 -21
-77 0 -102 -107 -32 -139 33 -15 53 -14 105 4 182 64 200 321 30 408 -54 27
-56 27 -255 27 -143 -1 -210 -5 -231 -14z"/>
</g>
</svg>
